<?xml version="1.0" encoding="UTF-8" standalone="no"?>
<svg
   xmlns:dc="http://purl.org/dc/elements/1.1/"
   xmlns:cc="http://creativecommons.org/ns#"
   xmlns:rdf="http://www.w3.org/1999/02/22-rdf-syntax-ns#"
   xmlns:svg="http://www.w3.org/2000/svg"
   xmlns="http://www.w3.org/2000/svg"
   xmlns:sodipodi="http://sodipodi.sourceforge.net/DTD/sodipodi-0.dtd"
   xmlns:inkscape="http://www.inkscape.org/namespaces/inkscape"
   width="4.7624998mm"
   height="4.7624998mm"
   viewBox="0 0 4.7624998 4.7624998"
   version="1.1"
   id="svg1099"
   sodipodi:docname="cb_indeterminate_checked.svg"
   inkscape:version="1.0.2 (e86c870879, 2021-01-15)">
  <sodipodi:namedview
     pagecolor="#ffffff"
     bordercolor="#666666"
     borderopacity="1"
     objecttolerance="10"
     gridtolerance="10"
     guidetolerance="10"
     inkscape:pageopacity="0"
     inkscape:pageshadow="2"
     inkscape:window-width="1920"
     inkscape:window-height="1012"
     id="namedview839"
     showgrid="false"
     inkscape:zoom="4.1444316"
     inkscape:cx="-29.748202"
     inkscape:cy="-23.158601"
     inkscape:window-x="0"
     inkscape:window-y="0"
     inkscape:window-maximized="1"
     inkscape:current-layer="svg1099" />
  <defs
     id="defs1093" />
  <metadata
     id="metadata1096">
    <rdf:RDF>
      <cc:Work
         rdf:about="">
        <dc:format>image/svg+xml</dc:format>
        <dc:type
           rdf:resource="http://purl.org/dc/dcmitype/StillImage" />
        <dc:title />
      </cc:Work>
    </rdf:RDF>
  </metadata>
  <rect
     style="fill:#ffffff;fill-opacity:1;stroke:none;stroke-width:0.264583"
     id="rect1056"
     width="3.3927596"
     height="1.8926233"
     x="0.504017"
     y="1.4070953" />
  <path
     d="M 4.2333331,0 H 0.5291666 C 0.238125,0 0,0.23812499 0,0.5291666 v 3.7041665 c 0,0.2910417 0.238125,0.5291667 0.5291666,0.5291667 h 3.7041665 c 0.2910416,0 0.5291666,-0.238125 0.5291666,-0.5291667 V 0.5291666 C 4.7624997,0.23812499 4.5243747,0 4.2333331,0 Z m -0.79375,2.6458332 H 1.3229166 c -0.1455208,0 -0.2645833,-0.1190625 -0.2645833,-0.2645833 0,-0.1455208 0.1190625,-0.2645833 0.2645833,-0.2645833 h 2.1166665 c 0.1455208,0 0.2645833,0.1190625 0.2645833,0.2645833 0,0.1455208 -0.1190625,0.2645833 -0.2645833,0.2645833 z"
     id="🔹-Icon-Color"
     fill="#425a76"
     style="fill-rule:evenodd;stroke:none;stroke-width:0.264583" />
</svg>
