<svg xmlns="http://www.w3.org/2000/svg" xml:space="preserve" width="512px" height="512px" version="1.1" style="shape-rendering:geometricPrecision; text-rendering:geometricPrecision; image-rendering:optimizeQuality; fill-rule:evenodd; clip-rule:evenodd" viewBox="0 0 512 512" xmlns:xlink="http://www.w3.org/1999/xlink">
 <defs>
  <style type="text/css">
   
    .fil1 {fill:black}
    .fil0 {fill:black;fill-rule:nonzero}
   
  </style>
 </defs>
 <g id="Layer_x0020_1">
  <metadata id="CorelCorpID_0Corel-Layer"></metadata>
  <path class="fil0" d="M58 502c-15,-15 -18,-44 22,-87 3,-4 9,-4 12,0l0 0c76,81 -2,117 -34,87z" id="id_105" style="fill: rgb(255, 255, 255);"></path>
  <path class="fil1" d="M385 201c-2,0 -4,-1 -6,-3l-113 -113c-3,-3 -3,-9 0,-12l29 -30c4,-3 9,-3 13,0l113 114c3,3 3,9 0,12l-29 29c-2,2 -4,3 -7,3z" id="id_106" style="fill: rgb(255, 255, 255);"></path>
  <path class="fil1" d="M97 394c-23,0 -32,-29 -23,-37 6,-5 14,-13 16,-15 1,-4 1,-18 1,-30 -1,-10 2,-20 9,-27l177 -177 79 80 -56 55 -41 -40c-4,-5 -11,2 -6,6l40 41 -25 25 -40 -41c-5,-4 -11,2 -7,7l41 41 -25 24 -41 -40c-4,-5 -11,2 -7,6l41 41 -51 51c-7,7 -17,10 -27,9 -12,0 -26,0 -29,1 -8,3 -12,20 -26,20z" id="id_107" style="fill: rgb(255, 255, 255);"></path>
  <path class="fil1" d="M332 55l39 -39c21,-21 56,-21 77,0 21,21 21,56 0,77l-39 39 -77 -77z" id="id_108" style="fill: rgb(255, 255, 255);"></path>
 </g>
</svg>