<svg width="128" height="128" viewBox="0 0 128 128" fill="none" xmlns="http://www.w3.org/2000/svg">
<path d="M7.38977 88.8935H60.1453V39.1025H7.38977C5.97348 39.1037 4.61552 39.6668 3.61406 40.6682C2.61259 41.6697 2.04947 43.0277 2.04834 44.4439V83.5521C2.04946 84.9684 2.61258 86.3264 3.61405 87.3278C4.61552 88.3293 5.97348 88.8924 7.38977 88.8935V88.8935Z" fill="#ffffff" id="id_101"></path>
<path d="M30.0908 102.874H7.83489C6.3002 102.874 4.82837 103.484 3.74318 104.569C2.65799 105.654 2.04834 107.126 2.04834 108.661C2.04834 110.195 2.65799 111.667 3.74318 112.752C4.82837 113.837 6.3002 114.447 7.83489 114.447H30.0909C31.6256 114.447 33.0974 113.837 34.1826 112.752C35.2678 111.667 35.8774 110.195 35.8774 108.661C35.8774 107.126 35.2678 105.654 34.1826 104.569C33.0974 103.484 31.6256 102.874 30.0909 102.874H30.0908Z" fill="#ffffff" id="id_102"></path>
<path d="M120.61 39.1023H86.4072V32.7447C86.4095 30.7248 87.213 28.7883 88.6413 27.36C90.0695 25.9317 92.006 25.1282 94.0259 25.1259H98.4254C99.1853 25.1259 99.9378 24.9762 100.64 24.6854C101.342 24.3946 101.98 23.9684 102.517 23.4311C103.054 22.8937 103.481 22.2558 103.771 21.5538C104.062 20.8517 104.212 20.0993 104.212 19.3394C104.212 18.5795 104.062 17.827 103.771 17.1249C103.481 16.4229 103.054 15.785 102.517 15.2476C101.98 14.7103 101.342 14.2841 100.64 13.9933C99.9378 13.7025 99.1853 13.5528 98.4254 13.5528H94.0259C89.0114 13.5518 84.1972 15.5208 80.6206 19.0357C77.0441 15.5208 72.2299 13.5517 67.2153 13.5527H62.8158C61.2812 13.5527 59.8093 14.1624 58.7241 15.2476C57.639 16.3328 57.0293 17.8046 57.0293 19.3393C57.0293 20.874 57.639 22.3458 58.7241 23.431C59.8093 24.5162 61.2812 25.1258 62.8158 25.1258H67.2153C69.2352 25.1282 71.1717 25.9316 72.6 27.3599C74.0283 28.7882 74.8318 30.7247 74.8341 32.7447V102.873H62.8158C61.2812 102.873 59.8093 103.483 58.7241 104.568C57.639 105.653 57.0293 107.125 57.0293 108.66C57.0293 110.195 57.639 111.667 58.7241 112.752C59.8093 113.837 61.2812 114.447 62.8158 114.447H98.4254C99.9601 114.447 101.432 113.837 102.517 112.752C103.602 111.667 104.212 110.195 104.212 108.66C104.212 107.125 103.602 105.653 102.517 104.568C101.432 103.483 99.9601 102.873 98.4254 102.873H86.4072V88.8931H120.61C122.027 88.893 123.385 88.3302 124.387 87.3285C125.389 86.3268 125.951 84.9683 125.951 83.5516V44.4438C125.951 43.0271 125.389 41.6686 124.387 40.6669C123.385 39.6652 122.027 39.1024 120.61 39.1023V39.1023ZM115.269 78.2102H86.4072V49.7852H115.269V78.2102Z" fill="#ffffff" id="id_103"></path>
</svg>