<svg width="120" height="120" viewBox="0 0 120 120" fill="none" xmlns="http://www.w3.org/2000/svg">
<path fill-rule="evenodd" clip-rule="evenodd" d="M79 53.7808V25.237C79 16.8218 72.1782 10 63.763 10C52.9147 10 45.5414 21.0153 49.6763 31.0446L53.7807 40.9999H25.237C16.8218 40.9999 10 47.8218 10 56.2369C10 67.0852 21.0153 74.4586 31.0446 70.3236L41 66.2192V94.763C41 103.178 47.8218 110 56.237 110C67.0853 110 74.4586 98.9847 70.3237 88.9554L66.2193 79.0001H94.763C103.178 79.0001 110 72.1782 110 63.7631C110 52.9148 98.9847 45.5414 88.9554 49.6764L79 53.7808ZM27.9954 62.9276L41.1632 57.4987C41.576 54.3598 42.755 51.4622 44.5063 48.9999H25.237C21.2401 48.9999 18 52.24 18 56.2369C18 61.3894 23.2318 64.8915 27.9954 62.9276ZM62.5012 41.1632C65.6402 41.5759 68.5378 42.755 71 44.5062V25.237C71 21.2401 67.7599 18 63.763 18C58.6105 18 55.1085 23.2318 57.0724 27.9954L62.5012 41.1632ZM78.8368 62.5013C78.424 65.6402 77.245 68.5378 75.4937 71.0001H94.763C98.7599 71.0001 102 67.76 102 63.7631C102 58.6106 96.7682 55.1085 92.0046 57.0724L78.8368 62.5013ZM57.4988 78.8368C54.3598 78.4241 51.4622 77.245 49 75.4938V94.763C49 98.7599 52.2401 102 56.237 102C61.3895 102 64.8915 96.7682 62.9276 92.0046L57.4988 78.8368ZM71 60C71 66.0751 66.0751 71 60 71C53.9249 71 49 66.0751 49 60C49 53.9249 53.9249 49 60 49C66.0751 49 71 53.9249 71 60Z" fill="#ffffff" id="id_101"></path>
</svg>